# xmcd
#
# Track frame offsets: 
#        150
#        25390
#        48408
#        72388
#        94870
#        114722
#        136483
#        157694
#        182100
#        204547
#        229720
#        255603
#        272589
#        296861
#        320579
#
# Disc length: 4567 seconds
#
# Revision: 2
# Processed by: cddbd v1.5.2PL0 Copyright (c) Steve Scherf et al.
# Submitted via: ExactAudioCopyFreeDBPlugin 1.0
#
DISCID=df11d50f
DTITLE=群星 - DTS51醇声美影
DYEAR=2011
DGENRE=DTS
TTITLE0=爱不在就放手
TTITLE1=别用下辈子安慰我
TTITLE2=放开手让她走
TTITLE3=画心
TTITLE4=挥不去的情愁
TTITLE5=寂寞才说爱
TTITLE6=离别的秋天
TTITLE7=骑车去拉萨
TTITLE8=青花瓷
TTITLE9=套马杆
TTITLE10=西海情歌
TTITLE11=小酒窝
TTITLE12=有没有人告诉你
TTITLE13=坐上火车去拉萨
TTITLE14=做你的爱人
EXTD=
EXTT0=
EXTT1=
EXTT2=
EXTT3=
EXTT4=
EXTT5=
EXTT6=
EXTT7=
EXTT8=
EXTT9=
EXTT10=
EXTT11=
EXTT12=
EXTT13=
EXTT14=
PLAYORDER=
